<svg xmlns="http://www.w3.org/2000/svg" viewBox="0 0 32 32" fill="none">
  <rect width="32" height="32" rx="7" fill="#dc2626"/>
  <path d="M16 5 C13 9 11 12 11 16.5 C11 20.5 13 23.5 16 25 C19 23.5 21 20.5 21 16.5 C21 12 19 9 16 5Z" fill="white" opacity="0.95"/>
  <path d="M16 12 C14.5 14.5 14 16 14 17.5 C14 19.5 14.8 21 16 21.5 C17.2 21 18 19.5 18 17.5 C18 16 17.5 14.5 16 12Z" fill="#dc2626"/>
  <path d="M16 17 C15.4 18 15 18.6 15 19.2 C15 19.8 15.4 20.2 16 20.4 C16.6 20.2 17 19.8 17 19.2 C17 18.6 16.6 18 16 17Z" fill="#fbbf24"/>
</svg>
